name ./resultDataOpenSim/trcMotMarkerGrf/sub09/grf-15-04.mot
datacolumns 19
datarows 17
range 0.48400000 0.54800000
endheader

                time	     ground_force_vx	     ground_force_vy	     ground_force_vz	     ground_force_px	     ground_force_py	     ground_force_pz	   l_ground_force_vx	   l_ground_force_vy	   l_ground_force_vz	   l_ground_force_px	   l_ground_force_py	   l_ground_force_pz	     ground_torque_x	     ground_torque_y	     ground_torque_z	   l_ground_torque_x	   l_ground_torque_y	   l_ground_torque_z	
          0.48400000	         33.19596878	        422.95143560	        -24.91175009	         -0.72721368	          0.00000000	          0.10597771	          0.00000000	          0.00000000	          0.00000000	          0.00000000	          0.00000000	          0.00000000	          0.00000000	          3.69679805	          0.00000000	          0.00000000	          0.00000000	          0.00000000	
          0.48800000	         35.86216794	        430.71640469	        -27.40885938	         -0.72582168	          0.00000000	          0.10638427	          0.00000000	          0.00000000	          0.00000000	          0.00000000	          0.00000000	          0.00000000	          0.00000000	          3.76890818	          0.00000000	          0.00000000	          0.00000000	          0.00000000	
          0.49200000	         38.68882436	        439.02550544	        -29.59811406	         -0.72437574	          0.00000000	          0.10673310	          0.00000000	          0.00000000	          0.00000000	          0.00000000	          0.00000000	          0.00000000	          0.00000000	          3.88340699	          0.00000000	          0.00000000	          0.00000000	          0.00000000	
          0.49600000	         41.60545782	        447.84497087	        -31.27278154	         -0.72285752	          0.00000000	          0.10701951	          0.00000000	          0.00000000	          0.00000000	          0.00000000	          0.00000000	          0.00000000	          0.00000000	          4.06968459	          0.00000000	          0.00000000	          0.00000000	          0.00000000	
          0.50000000	         44.53370901	        457.12825720	        -32.31390671	         -0.72125078	          0.00000000	          0.10725033	          0.00000000	          0.00000000	          0.00000000	          0.00000000	          0.00000000	          0.00000000	          0.00000000	          4.34569240	          0.00000000	          0.00000000	          0.00000000	          0.00000000	
          0.50400000	         47.41657962	        466.83018392	        -32.72037421	         -0.71953057	          0.00000000	          0.10743941	          0.00000000	          0.00000000	          0.00000000	          0.00000000	          0.00000000	          0.00000000	          0.00000000	          4.71230657	          0.00000000	          0.00000000	          0.00000000	          0.00000000	
          0.50800000	         50.23546510	        476.93982487	        -32.61075062	         -0.71768199	          0.00000000	          0.10759984	          0.00000000	          0.00000000	          0.00000000	          0.00000000	          0.00000000	          0.00000000	          0.00000000	          5.15137099	          0.00000000	          0.00000000	          0.00000000	          0.00000000	
          0.51200000	         53.00076625	        487.53649923	        -32.20167804	         -0.71570263	          0.00000000	          0.10772832	          0.00000000	          0.00000000	          0.00000000	          0.00000000	          0.00000000	          0.00000000	          0.00000000	          5.62790520	          0.00000000	          0.00000000	          0.00000000	          0.00000000	
          0.51600000	         55.73424318	        498.78998768	        -31.77708145	         -0.71366353	          0.00000000	          0.10779503	          0.00000000	          0.00000000	          0.00000000	          0.00000000	          0.00000000	          0.00000000	          0.00000000	          6.09582577	          0.00000000	          0.00000000	          0.00000000	          0.00000000	
          0.52000000	         58.48073804	        510.81671172	        -31.63590236	         -0.71166948	          0.00000000	          0.10779067	          0.00000000	          0.00000000	          0.00000000	          0.00000000	          0.00000000	          0.00000000	          0.00000000	          6.50592687	          0.00000000	          0.00000000	          0.00000000	          0.00000000	
          0.52400000	         61.30875961	        523.52165196	        -32.01903534	         -0.70971311	          0.00000000	          0.10777053	          0.00000000	          0.00000000	          0.00000000	          0.00000000	          0.00000000	          0.00000000	          0.00000000	          6.81477554	          0.00000000	          0.00000000	          0.00000000	          0.00000000	
          0.52800000	         64.26381126	        536.67239807	        -33.05896551	         -0.70767255	          0.00000000	          0.10781195	          0.00000000	          0.00000000	          0.00000000	          0.00000000	          0.00000000	          0.00000000	          0.00000000	          6.99301938	          0.00000000	          0.00000000	          0.00000000	          0.00000000	
          0.53200000	         67.35161105	        550.15834723	        -34.76210772	         -0.70548146	          0.00000000	          0.10792035	          0.00000000	          0.00000000	          0.00000000	          0.00000000	          0.00000000	          0.00000000	          0.00000000	          7.03136475	          0.00000000	          0.00000000	          0.00000000	          0.00000000	
          0.53600000	         70.57379454	        564.11153687	        -36.99930178	         -0.70325564	          0.00000000	          0.10801495	          0.00000000	          0.00000000	          0.00000000	          0.00000000	          0.00000000	          0.00000000	          0.00000000	          6.94271694	          0.00000000	          0.00000000	          0.00000000	          0.00000000	
          0.54000000	         73.92651150	        578.73769602	        -39.50695742	         -0.70118225	          0.00000000	          0.10800386	          0.00000000	          0.00000000	          0.00000000	          0.00000000	          0.00000000	          0.00000000	          0.00000000	          6.75991824	          0.00000000	          0.00000000	          0.00000000	          0.00000000	
          0.54400000	         77.34950929	        594.04506552	        -41.91506602	         -0.69932072	          0.00000000	          0.10785131	          0.00000000	          0.00000000	          0.00000000	          0.00000000	          0.00000000	          0.00000000	          0.00000000	          6.52968576	          0.00000000	          0.00000000	          0.00000000	          0.00000000	
          0.54800000	         80.72305176	        609.75982919	        -43.81131034	         -0.69756090	          0.00000000	          0.10757879	          0.00000000	          0.00000000	          0.00000000	          0.00000000	          0.00000000	          0.00000000	          0.00000000	          6.30408769	          0.00000000	          0.00000000	          0.00000000	          0.00000000	
